<svg id="Layer_1" data-name="Layer 1" xmlns="http://www.w3.org/2000/svg" viewBox="0 0 1056.67 295.2"><defs><style>.cls-1{fill:#1fbab0;}.cls-2{fill:#16a7e0;}.cls-3{fill:#f6f8fa;}.cls-4{fill:none;}.cls-5{fill:#fbd011;}.cls-6{fill:#fff;}.cls-7{fill:#4b4b4b;}</style></defs><title>Artboard 1</title><path class="cls-1" d="M743.06,152.1l-91.84-44.72a85.3,85.3,0,0,0-83.76,5.35l-30.15,19.79-1.1-1.67,30.15-19.79a87.31,87.31,0,0,1,85.73-5.48l91.84,44.72Z"/><path class="cls-1" d="M595.06,162.41,491.55,112A96.25,96.25,0,0,0,397,118l-34,22.3-1.1-1.67,34-22.3a98.27,98.27,0,0,1,96.49-6.17l103.51,50.4Z"/><polygon class="cls-1" points="301.5 151.01 285.19 151.01 285.19 149.01 299.5 149.01 299.5 130.51 320.5 130.51 320.5 132.51 301.5 132.51 301.5 151.01"/><polygon class="cls-1" points="251 195.26 249 195.26 249 149.01 270.25 149.01 270.25 151.01 251 151.01 251 195.26"/><path class="cls-2" d="M290.41,231.51H264.93L276.67,29.94h2Zm-23.36-2h21.24L277.67,47.19Z"/><rect class="cls-3" x="265.72" y="73.81" width="23.89" height="17.52"/><path class="cls-2" d="M290.61,92.33H264.72V72.81h25.89Zm-23.89-2h21.89V74.81H266.72Z"/><rect class="cls-3" x="263.06" y="88.41" width="29.2" height="8.76" rx="4" ry="4"/><path class="cls-1" d="M288.27,98.17H267.06a5,5,0,0,1-5-5v-.76a5,5,0,0,1,5-5h21.21a5,5,0,0,1,5,5v.76A5,5,0,0,1,288.27,98.17Zm-21.21-8.76a3,3,0,0,0-3,3v.76a3,3,0,0,0,3,3h21.21a3,3,0,0,0,3-3v-.76a3,3,0,0,0-3-3Z"/><rect class="cls-2" x="276.67" y="0.8" width="2" height="55.49"/><rect class="cls-1" x="271.83" y="31.92" width="11.68" height="2"/><rect class="cls-3" x="271.83" y="59.21" width="11.68" height="8.76"/><path class="cls-2" d="M284.51,69H270.83V58.21h13.68Zm-11.68-2h9.68V60.21h-9.68Z"/><rect class="cls-3" x="263.06" y="67.97" width="29.2" height="8.76" rx="4" ry="4"/><path class="cls-1" d="M288.27,77.73H267.06a5,5,0,0,1-5-5V72a5,5,0,0,1,5-5h21.21a5,5,0,0,1,5,5v.76A5,5,0,0,1,288.27,77.73ZM267.06,69a3,3,0,0,0-3,3v.76a3,3,0,0,0,3,3h21.21a3,3,0,0,0,3-3V72a3,3,0,0,0-3-3Z"/><path class="cls-2" d="M431.67,260.17H415.23v-2.91a10.41,10.41,0,0,0-10.4-10.4H394.11a10.41,10.41,0,0,0-10.4,10.4v2.91H365.6v-2h16.11v-.91a12.41,12.41,0,0,1,12.4-12.4h10.72a12.41,12.41,0,0,1,12.4,12.4v.91h14.44Z"/><path class="cls-2" d="M382.09,233.84l-1.83-.79c7.75-17.89,12.9-34.49,12.9-57.33V153.06h2v22.66C395.16,198.9,389.93,215.72,382.09,233.84Z"/><path class="cls-2" d="M400.3,155.12H397a5.13,5.13,0,0,1-3.55-1.41l1.38-1.45a3.14,3.14,0,0,0,2.17.86h3.33a3.14,3.14,0,0,0,2.14-.84l1.36,1.47A5.14,5.14,0,0,1,400.3,155.12Z"/><path class="cls-3" d="M394.11,153a4.14,4.14,0,0,1-1.3-3v-6.66a4.15,4.15,0,0,1,4.15-4.15h3.33a4.15,4.15,0,0,1,4.15,4.15V150a4.14,4.14,0,0,1-1.33,3"/><path class="cls-2" d="M403.81,153.75l-1.36-1.47a3.12,3.12,0,0,0,1-2.32v-6.66a3.16,3.16,0,0,0-3.15-3.15H397a3.16,3.16,0,0,0-3.16,3.15V150a3.13,3.13,0,0,0,1,2.29l-1.38,1.45a5.18,5.18,0,0,1-1.61-3.74v-6.66a5.16,5.16,0,0,1,5.16-5.15h3.33a5.16,5.16,0,0,1,5.15,5.15V150A5.17,5.17,0,0,1,403.81,153.75Z"/><rect class="cls-1" x="397.64" y="127.63" width="2" height="10.58"/><path class="cls-1" d="M1056.67,260.17h-639v-2h637v-1A27.7,27.7,0,0,0,1027,229.51H988v-2h39a29.7,29.7,0,0,1,29.67,29.67Z"/><rect class="cls-2" x="180.67" y="241.51" width="141" height="2"/><rect class="cls-1" x="621.25" y="242.51" width="168.5" height="2"/><rect class="cls-2" x="30" y="243.51" width="40" height="2"/><polygon class="cls-2" points="535 274.87 420.7 274.87 407.84 246.8 409.66 245.97 421.98 272.87 535 272.87 535 274.87"/><path class="cls-2" d="M823,295.2c-5.24,0-8-2.82-10.36-5.31s-4.52-4.69-8.92-4.69-6.59,2.28-8.92,4.69-5.11,5.31-10.36,5.31-8-2.82-10.36-5.31-4.52-4.69-8.92-4.69-6.59,2.28-8.92,4.69-5.11,5.31-10.36,5.31-8-2.82-10.36-5.31-4.52-4.69-8.92-4.69-6.59,2.28-8.92,4.69-5.11,5.31-10.36,5.31-8-2.82-10.35-5.31-4.52-4.69-8.91-4.69-6.59,2.28-8.91,4.69S674,295.2,668.8,295.2s-8-2.82-10.35-5.31-4.52-4.69-8.91-4.69-6.59,2.28-8.92,4.69-5.11,5.31-10.35,5.31-8-2.82-10.35-5.31-4.52-4.69-8.91-4.69v-2c5.24,0,8,2.82,10.35,5.31s4.52,4.69,8.91,4.69,6.59-2.28,8.92-4.69,5.11-5.31,10.35-5.31,8,2.82,10.35,5.31,4.52,4.69,8.91,4.69,6.59-2.28,8.92-4.69,5.11-5.31,10.35-5.31,8,2.82,10.35,5.31,4.52,4.69,8.92,4.69,6.59-2.28,8.92-4.69,5.11-5.31,10.35-5.31,8,2.82,10.36,5.31,4.52,4.69,8.92,4.69,6.59-2.28,8.92-4.69,5.11-5.31,10.36-5.31,8,2.82,10.36,5.31,4.52,4.69,8.92,4.69,6.59-2.28,8.92-4.69,5.11-5.31,10.36-5.31,8,2.82,10.36,5.31,4.52,4.69,8.92,4.69Z"/><polygon class="cls-2" points="378.65 274.87 290.98 274.87 290.98 272.87 377.33 272.87 388.58 246.43 390.42 247.21 378.65 274.87"/><rect class="cls-1" x="327.65" y="47.17" width="2" height="38.96"/><rect class="cls-1" x="341.4" y="47.17" width="2" height="38.96"/><path class="cls-1" d="M357.79,231.21,335.58,209l-22.21,22.21L312,229.8l22.21-22.21L316.54,190v-1.41l17.63-17.63-15.33-15.33v-1.41l15.33-15.33-13-13v-1.41l13-13-10.75-10.75V99.17l11.46-11.46h1.41l11.46,11.46v1.41L337,111.34l13,13v1.41l-13,13,15.33,15.33v1.41L337,170.92l17.63,17.63V190L337,207.59l22.21,22.21Zm-39.13-42,16.92,16.92,16.92-16.92-16.92-16.92ZM321,154.88l14.63,14.63,14.63-14.63-14.63-14.63Zm2.29-29.79,12.34,12.34,12.34-12.34-12.34-12.34Zm2.29-25.21,10,10,10-10-10-10Z"/><path class="cls-2" d="M989.67,239.18H930v-2h57.67v-1A27.7,27.7,0,0,0,960,208.51H853.34v-2H960a29.7,29.7,0,0,1,29.67,29.67Z"/><rect class="cls-2" x="825.31" y="56.59" width="14.16" height="2" transform="translate(771.55 889.74) rotate(-89.78)"/><path class="cls-1" d="M863.41,229.51h-13.6l-3.44-10.33a14.72,14.72,0,0,0-27.93,0L815,229.51h-13.6l4.9-10.89a190,190,0,0,0,16.8-74.75l1.38-71.73a7.93,7.93,0,0,1,15.86,0l1.38,71.73a190,190,0,0,0,16.8,74.75Zm-12.16-2h9.06l-3.63-8.07a192,192,0,0,1-17-75.53l-1.38-71.73a5.93,5.93,0,0,0-11.86,0l-1.38,71.73a192,192,0,0,1-17,75.53l-3.63,8.07h9.06l3-9a16.72,16.72,0,0,1,31.72,0Z"/><rect class="cls-3" x="823.35" y="78.96" width="18.13" height="9.06"/><path class="cls-2" d="M842.48,89H822.35V78h20.13Zm-18.13-2h16.13V80H824.35Z"/><rect class="cls-3" x="823.35" y="94.82" width="18.13" height="9.06"/><path class="cls-2" d="M842.48,104.89H822.35V93.82h20.13Zm-18.13-2h16.13V95.82H824.35Z"/><polygon class="cls-3" points="843.74 149.2 821.08 149.2 818.82 140.14 846.01 140.14 843.74 149.2"/><path class="cls-2" d="M844.52,150.2H820.3l-2.76-11.06h29.75Zm-22.66-2H843l1.77-7.06H820.1Z"/><rect class="cls-1" x="796.16" y="227.51" width="18.13" height="2"/><rect class="cls-1" x="852.8" y="227.51" width="15.86" height="2"/><rect class="cls-1" x="805.08" y="182.04" width="14.17" height="2"/><rect class="cls-4" x="866.92" y="164.88" width="4.12" height="8.2"/><rect class="cls-4" x="879.15" y="164.88" width="4.12" height="8.2"/><polygon class="cls-4" points="872.74 138.08 871.33 136.66 895.48 112.51 894.69 99.11 893.71 82.44 867.15 109 864.94 146.57 897.48 146.57 895.64 115.18 872.74 138.08"/><polygon class="cls-4" points="893.52 79.23 868.9 79.23 867.33 106 893.55 79.77 893.52 79.23"/><path class="cls-4" d="M887.35,65v-2a6.14,6.14,0,0,0-12.27,0v2a6.14,6.14,0,0,0,12.27,0Z"/><rect class="cls-4" x="852.64" y="24.17" width="6.16" height="6.16"/><rect class="cls-4" x="891.39" y="164.88" width="4.12" height="8.2"/><path class="cls-4" d="M860.66,156.72l-3.77,24.51h48.65l-3.77-24.51ZM873,175.08h-8.12v-12.2H873Zm12.24,0h-8.12v-12.2h8.12Zm12.24,0h-8.12v-12.2h8.12Z"/><path class="cls-1" d="M858.94,154.72l-4.39,28.51h53.31l-4.39-28.51Zm-2.06,26.51,3.77-24.51h41.11l3.77,24.51Z"/><path class="cls-2" d="M864.92,175.08H873v-12.2h-8.12Zm2-10.2H871v8.2h-4.12Z"/><path class="cls-2" d="M889.39,175.08h8.12v-12.2h-8.12Zm2-10.2h4.12v8.2h-4.12Z"/><path class="cls-1" d="M877.15,175.08h8.12v-12.2h-8.12Zm2-10.2h4.12v8.2h-4.12Z"/><polygon class="cls-4" points="902.09 109.51 907.56 99.15 904.22 97.48 905.11 95.69 908.49 97.38 911.8 91.12 903.49 86.73 896.72 99.55 897.15 106.91 902.09 109.51"/><polygon class="cls-2" points="893.55 79.77 867.33 106 867.15 109 893.71 82.44 893.55 79.77"/><polygon class="cls-2" points="872.74 138.08 895.64 115.18 895.48 112.51 871.33 136.66 872.74 138.08"/><rect class="cls-1" x="847.56" y="36.45" width="16.31" height="2"/><rect class="cls-2" x="854.72" y="41.53" width="2" height="8.16"/><path class="cls-5" d="M860.8,22.17H850.64V32.33H860.8Zm-2,8.16h-6.16V24.17h6.16Z"/><path class="cls-2" d="M889.35,65v-2a8.14,8.14,0,0,0-16.27,0v2a8.14,8.14,0,0,0,16.27,0Zm-14.27,0v-2a6.14,6.14,0,0,1,12.27,0v2a6.14,6.14,0,0,1-12.27,0Z"/><path class="cls-1" d="M870.11,53.34a13.89,13.89,0,0,0-2.9,7.15v.58h0c0,.28,0,.57,0,.85h2a12,12,0,0,1,24,0h2c0-.29,0-.57,0-.85h-1.88v-2h1.63a13.91,13.91,0,0,0-2.67-5.73l-.31.18L890.93,52a14,14,0,0,0-6.16-3.53h0a13.6,13.6,0,0,0-7.38,0v0l-1.79.89-.12-.24A14,14,0,0,0,871.31,52l-.89,1.54Z"/><path class="cls-2" d="M900.58,61.07v-2H894.8a14,14,0,0,1,.25,2Z"/><path class="cls-2" d="M893.17,61.07h1.88a14,14,0,0,0-.25-2h-1.63Z"/><path class="cls-2" d="M892.13,53.34l6.11-3.53-1-1.73-6.42,3.71.11.19A14.07,14.07,0,0,1,892.13,53.34Z"/><path class="cls-2" d="M892.13,53.34a14.07,14.07,0,0,0-1.2-1.36l.89,1.54Z"/><path class="cls-2" d="M888.47,42l-1.73-1L883,47.45l1.71,1h0Z"/><path class="cls-2" d="M884.77,48.44h0Z"/><path class="cls-2" d="M867.21,59.07H859.8v2h7.39c0-.19,0-.39,0-.58Z"/><path class="cls-2" d="M867.21,60.49c0,.19,0,.39,0,.58h0Z"/><path class="cls-2" d="M871.31,52l.11-.19L865,48.08l-1,1.73,6.11,3.53A14.1,14.1,0,0,1,871.31,52Z"/><path class="cls-2" d="M870.11,53.34l.31.18.89-1.54A14.1,14.1,0,0,0,870.11,53.34Z"/><path class="cls-2" d="M873.67,41.08l-1.79.89,3.59,7.17a13.86,13.86,0,0,1,1.9-.68Z"/><path class="cls-2" d="M877.38,48.5v0a13.86,13.86,0,0,0-1.9.68l.12.24Z"/><polygon class="cls-2" points="904.22 97.48 907.56 99.15 908.49 97.38 905.11 95.69 904.22 97.48"/><path class="cls-1" d="M914.5,90.29,902.66,84,896.5,95.7l-1-17.52-.05-.94H867l-.12,2A11.25,11.25,0,0,1,856.72,68V51.72h-2V68a13.25,13.25,0,0,0,12.06,13.18l-4,67.36h36.79l-2.31-39.33,5.63,3Zm-17,56.28H864.94L867.15,109l.18-3,1.57-26.77h24.62l0,.54.16,2.67,1.77,30.07.16,2.67Zm-.33-39.66-.43-7.35,6.77-12.82,8.31,4.39-3.31,6.26-.93,1.77-5.47,10.36Z"/><path class="cls-3" d="M982.52,166.84c-.67-.4-1.35-.75-2-1.09a32.45,32.45,0,0,1,11-2.35,71.23,71.23,0,0,1,15.49,1.89c-2.13-4.78-9.74-8.33-19.29-8.69a23.49,23.49,0,0,1,5-7.75,41.27,41.27,0,0,1,9.16-6.42c-5.86-4.13-16.48-.65-25,8.06a37,37,0,0,0-6,7.86,26.44,26.44,0,0,0-8-12.09c-6.75-5.88-14.58-7-19.11-3.38,0,0,6.31,1.6,10.52,5.26,3.9,3.39,5.73,8.88,5.73,8.88-.8-.19-1.6-.36-2.43-.51-10.53-1.85-19.85.52-23.05,5.3a64.75,64.75,0,0,1,13.82.7,65.89,65.89,0,0,1,13.2,4,25.87,25.87,0,0,0-4.53,1.92c-7,3.8-10.8,9.93-9.69,14.8a47.37,47.37,0,0,1,9.86-7.61,35.81,35.81,0,0,1,10.6-3.48l-.79,12,3.23-4.11c0,3.91-.18,8.34-.64,12.94-2.06,20.65-7.22,45.15-7.22,45.15h12.64s3.25-25,3.25-45.7a117.94,117.94,0,0,0-1.78-19.78,13.14,13.14,0,0,1,6.14,1.67,74.32,74.32,0,0,1,11,8.28C994.32,177.78,990,171.24,982.52,166.84Z"/><path class="cls-1" d="M975.8,239.2H961.05l.25-1.21c.05-.25,5.18-24.68,7.21-45,.31-3.16.51-6.47.59-9.9l-3.4,4.32.92-14a34.22,34.22,0,0,0-9,3.15A46.59,46.59,0,0,0,948,184l-1.29,1.33-.41-1.8c-1.23-5.44,3-12,10.19-15.9q1.08-.59,2.23-1.08a61.77,61.77,0,0,0-10.59-3,64.3,64.3,0,0,0-13.58-.68l-2,.15,1.14-1.7c3.52-5.24,13.41-7.6,24.06-5.73l.62.12a20.45,20.45,0,0,0-4.74-6.74c-4-3.47-10-5-10.11-5l-1.95-.49,1.57-1.26c5-4,13.43-2.65,20.39,3.41A27.94,27.94,0,0,1,971,156a39.37,39.37,0,0,1,5-6.21c9-9.16,20-12.6,26.3-8.18l1.36,1-1.49.75a40.48,40.48,0,0,0-8.9,6.23,22.36,22.36,0,0,0-4.19,6.13c9.22.66,16.49,4.2,18.72,9.2l.83,1.86-2-.49a70.31,70.31,0,0,0-15.23-1.86,30.41,30.41,0,0,0-8.52,1.52l.09.05h0c7.66,4.49,12.37,11.42,11.45,16.86l-.31,1.82-1.36-1.25A73.93,73.93,0,0,0,982,175.26a12.11,12.11,0,0,0-4.45-1.45,118.61,118.61,0,0,1,1.59,18.7c0,20.48-3.23,45.57-3.26,45.82Zm-12.29-2H974c.57-4.6,3.13-26.49,3.13-44.7a117.49,117.49,0,0,0-1.77-19.61l-.21-1.18h1.2a14.19,14.19,0,0,1,6.62,1.8,66.85,66.85,0,0,1,9.5,7c-.55-4.25-4.63-9.33-10.51-12.78h0c-.59-.34-1.21-.68-2-1.05l-1.93-1,2-.86a33.13,33.13,0,0,1,11.33-2.43,67.82,67.82,0,0,1,13.37,1.4c-3-3.5-9.51-5.92-17.2-6.21l-1.36-.05.46-1.28a24.33,24.33,0,0,1,5.2-8.12,38.73,38.73,0,0,1,7.79-5.72c-5.62-2.33-14.77,1.17-22.21,8.77a35.9,35.9,0,0,0-5.8,7.64l-1.16,2.08-.68-2.28a25.33,25.33,0,0,0-7.7-11.62c-5.42-4.72-11.69-6.38-16-4.44a27.9,27.9,0,0,1,8.77,4.81,23.83,23.83,0,0,1,6,9.31l.57,1.7L959.7,158c-.87-.21-1.64-.37-2.37-.5-8.46-1.48-16.57-.13-20.55,3.22a63.35,63.35,0,0,1,11.66.8,66.19,66.19,0,0,1,13.43,4.12l2.43,1.07-2.53.8a25,25,0,0,0-4.35,1.84c-5.56,3-9.13,7.6-9.35,11.74a45.27,45.27,0,0,1,8.57-6.31,36.46,36.46,0,0,1,10.94-3.59l1.22-.17-.66,10,3-3.86v2.91c0,4.53-.24,8.92-.64,13C968.72,211,964.57,232,963.51,237.2Z"/><rect class="cls-1" x="960.9" y="234.46" width="2" height="19.81"/><rect class="cls-2" x="950.89" y="238.23" width="2" height="10.04"/><path class="cls-3" d="M958.17,238.18h8.75s-3.58-16.89-5-31.12a97.65,97.65,0,0,1-.42-11.8,25.35,25.35,0,0,1,7.4,2,32.77,32.77,0,0,1,6.83,5.24c.76-3.35-1.86-7.58-6.71-10.2a17.92,17.92,0,0,0-3.14-1.32,45.74,45.74,0,0,1,9.14-2.79,45,45,0,0,1,9.57-.48c-2.22-3.3-8.67-4.93-16-3.65-.57.1-1.13.22-1.68.35a15.87,15.87,0,0,1,4-6.12,20.45,20.45,0,0,1,7.28-3.63c-3.14-2.51-8.55-1.72-13.23,2.33a18.22,18.22,0,0,0-5.54,8.33,25.5,25.5,0,0,0-4.12-5.42c-5.91-6-13.25-8.41-17.31-5.56a28.57,28.57,0,0,1,6.34,4.42,16.18,16.18,0,0,1,3.44,5.35c-6.61.25-11.88,2.7-13.35,6a49.52,49.52,0,0,1,10.72-1.3,22.56,22.56,0,0,1,7.58,1.62c-.47.23-.94.48-1.41.75-5.19,3-8.17,7.54-7.59,10.91a51.42,51.42,0,0,1,7.59-5.71,9,9,0,0,1,4.56-1.14l1-.14a79.27,79.27,0,0,0-.9,11.57,290.66,290.66,0,0,0,2.25,31.5"/><path class="cls-2" d="M968.16,239.18H957.29l-.11-.87a293.65,293.65,0,0,1-2.26-31.63,78.48,78.48,0,0,1,.73-10.43h0a8.17,8.17,0,0,0-3.85,1,50.54,50.54,0,0,0-7.4,5.58L943,204.09l-.31-1.81c-.63-3.74,2.44-8.45,7.54-11.61a20.27,20.27,0,0,0-5.14-.83,47.55,47.55,0,0,0-10.47,1.27l-2,.48.83-1.86c1.55-3.47,6.49-5.95,12.77-6.49a14.82,14.82,0,0,0-2.64-3.73,27.63,27.63,0,0,0-6.08-4.24l-1.5-.75,1.37-1c4.46-3.13,12.29-.74,18.6,5.68a27.88,27.88,0,0,1,3.19,3.85,19.74,19.74,0,0,1,5.11-6.82c4.93-4.27,10.9-5.24,14.51-2.36l1.57,1.26-2,.5a19.55,19.55,0,0,0-6.87,3.42,13.14,13.14,0,0,0-2.95,4c7.43-1.26,14.32.42,16.8,4.11l1.15,1.7-2-.14a44.52,44.52,0,0,0-9.33.47,41.14,41.14,0,0,0-6.57,1.81l.87.44c5.13,2.77,8.1,7.42,7.21,11.3l-.41,1.79L975,203.22a32,32,0,0,0-6.59-5.06,20.87,20.87,0,0,0-5.95-1.73,94.5,94.5,0,0,0,.43,10.53c1.4,14,4.95,30.85,5,31Zm-9.1-2h6.64c-.84-4.13-3.57-18.08-4.77-30a97.84,97.84,0,0,1-.42-11.92l0-1.13,1.12.17a26.32,26.32,0,0,1,7.73,2.13,30.49,30.49,0,0,1,5.36,3.82c-.55-2.51-2.87-5.23-6.19-7a16.93,16.93,0,0,0-3-1.25l-2.54-.8,2.44-1.07a46.38,46.38,0,0,1,9.37-2.86,43,43,0,0,1,7.17-.57c-2.87-1.84-7.94-2.52-13.22-1.59-.55.1-1.09.21-1.63.34l-1.75.41.57-1.7a16.78,16.78,0,0,1,4.26-6.56,18.75,18.75,0,0,1,5.37-3.08c-2.85-.8-6.66.39-10,3.29a17.14,17.14,0,0,0-5.24,7.86l-.68,2.27-1.15-2.07a24.44,24.44,0,0,0-4-5.2c-4.8-4.88-10.62-7.28-14.43-6.2a26,26,0,0,1,4.88,3.65,17.1,17.1,0,0,1,3.67,5.72l.46,1.28-1.36.05c-4.62.17-8.72,1.52-11,3.47a44.46,44.46,0,0,1,8.32-.78,23.41,23.41,0,0,1,8,1.7l2,.86-1.94,1c-.45.22-.9.46-1.35.72-3.61,2.11-6.22,5.09-7,7.74a43.66,43.66,0,0,1,6-4.27,10.13,10.13,0,0,1,5-1.28l2.2-.33-.2,1.34a77.47,77.47,0,0,0-.89,11.42A286.31,286.31,0,0,0,959.05,237.18Z"/><path class="cls-2" d="M359.47,231.51H311.7L323.32,85.13h24.54Zm-45.6-2H357.3L346,87.13H325.16Z"/><polygon class="cls-2" points="499.93 258.22 497.44 169.66 494.68 163.23 491.93 169.66 489.43 258.22 487.43 258.17 489.94 169.22 494.68 158.15 499.43 169.22 501.93 258.17 499.93 258.22"/><rect class="cls-1" x="482.43" y="245.69" width="2" height="12.5"/><rect class="cls-1" x="477.43" y="248.19" width="2" height="10"/><rect class="cls-1" x="472.43" y="250.69" width="2" height="7.5"/><rect class="cls-1" x="509.93" y="248.19" width="2" height="10"/><rect class="cls-1" x="514.93" y="250.69" width="2" height="7.5"/><rect class="cls-1" x="504.93" y="245.69" width="2" height="12.5"/><path class="cls-1" d="M598.5,260.19H587v-2h11.5a6.93,6.93,0,0,0,7-6.84,8.93,8.93,0,0,1,9-8.84H629v2H614.5a6.93,6.93,0,0,0-7,6.84A8.93,8.93,0,0,1,598.5,260.19Z"/><path class="cls-1" d="M590.5,244.51h-1.33v-2h1.33a7,7,0,0,0,7-7,9,9,0,0,1,9-9H629v2H606.5a7,7,0,0,0-7,7A9,9,0,0,1,590.5,244.51Z"/><rect class="cls-1" x="845" y="181.84" width="77.33" height="2"/><path class="cls-1" d="M936.33,281.51h-84v-2h84a20.36,20.36,0,0,0,20.33-20.33h2A22.36,22.36,0,0,1,936.33,281.51Z"/><path class="cls-2" d="M195,285.93c-4.66,0-7.05-2.85-9.16-5.36s-3.9-4.64-7.63-4.64-5.54,2.15-7.63,4.64-4.5,5.36-9.16,5.36-7.05-2.85-9.16-5.36-3.9-4.64-7.63-4.64-5.54,2.15-7.63,4.64-4.5,5.36-9.16,5.36-7.05-2.85-9.16-5.36-3.9-4.64-7.63-4.64-5.54,2.15-7.63,4.64-4.5,5.36-9.16,5.36-7.05-2.85-9.16-5.36-3.9-4.64-7.63-4.64-5.54,2.15-7.63,4.64-4.5,5.36-9.16,5.36-7.05-2.85-9.16-5.36-3.9-4.64-7.63-4.64-5.54,2.15-7.63,4.64-4.5,5.36-9.16,5.36-7.05-2.85-9.16-5.36-3.9-4.64-7.63-4.64v-2c4.66,0,7.05,2.85,9.16,5.36s3.9,4.64,7.63,4.64,5.54-2.15,7.63-4.64,4.5-5.36,9.16-5.36,7.05,2.85,9.16,5.36,3.9,4.64,7.63,4.64,5.54-2.15,7.63-4.64,4.5-5.36,9.16-5.36,7.05,2.85,9.16,5.36,3.9,4.64,7.63,4.64,5.54-2.15,7.63-4.64,4.5-5.36,9.16-5.36,7.05,2.85,9.16,5.36,3.9,4.64,7.63,4.64,5.54-2.15,7.63-4.64,4.5-5.36,9.16-5.36,7.05,2.85,9.16,5.36,3.9,4.64,7.63,4.64,5.54-2.15,7.63-4.64,4.5-5.36,9.16-5.36,7.05,2.85,9.16,5.36,3.9,4.64,7.63,4.64Z"/><path class="cls-1" d="M545.67,289.59h-264A29.7,29.7,0,0,1,252,259.92h2a27.7,27.7,0,0,0,27.67,27.67h264Z"/><path class="cls-2" d="M782.45,229.42H747.39V214.35a17.53,17.53,0,1,1,35.06,0Zm-33.06-2h31.06V214.35a15.53,15.53,0,1,0-31.06,0Z"/><path class="cls-1" d="M784.1,151.89H745.74v-5.26a19.18,19.18,0,1,1,38.37,0Zm-36.37-2H782.1v-3.26a17.18,17.18,0,1,0-34.37,0Z"/><path class="cls-2" d="M769.23,129.45h-8.61v-8.12h8.61Zm-6.61-2h4.61v-4.12h-4.61Z"/><rect class="cls-1" x="763.92" y="97.84" width="2" height="23.4"/><rect class="cls-3" x="789.71" y="167.21" width="19.84" height="61.21"/><path class="cls-2" d="M810.55,229.42H788.71V166.21h21.83Zm-19.83-2h17.83V168.21H790.71Z"/><path class="cls-2" d="M787.41,162.09h-45v-12.2h45Zm-43-2h41v-8.2h-41Z"/><path class="cls-2" d="M807.24,168.21H795v-4a6.14,6.14,0,1,1,12.29,0Zm-10.29-2h8.29v-2a4.14,4.14,0,1,0-8.29,0Z"/><rect class="cls-1" x="800.1" y="150.73" width="2" height="7.23"/><rect class="cls-6" x="720.29" y="167.21" width="19.84" height="61.21"/><path class="cls-2" d="M741.13,229.42H719.29V166.21h21.84Zm-19.84-2h17.84V168.21H721.29Z"/><path class="cls-1" d="M790.71,229.42H739.13V160.09h51.59Zm-49.59-2h47.59V162.09H741.13Z"/><rect class="cls-1" x="727.56" y="150.73" width="2" height="7.96"/><rect class="cls-1" x="749.48" y="219.16" width="30.88" height="2"/><polygon class="cls-6" points="746.74 161.09 764.92 146.81 783.1 161.09 746.74 161.09"/><path class="cls-1" d="M786,162.09H743.85l21.07-16.55Zm-36.37-2h30.58l-15.29-12Z"/><ellipse class="cls-3" cx="764.92" cy="161.31" rx="5.79" ry="5.62"/><path class="cls-2" d="M764.92,167.93a6.62,6.62,0,1,1,6.79-6.62A6.71,6.71,0,0,1,764.92,167.93Zm0-11.23a4.62,4.62,0,1,0,4.79,4.62A4.71,4.71,0,0,0,764.92,156.69Z"/><path class="cls-2" d="M734.51,168.21H722.23v-4a6.14,6.14,0,1,1,12.29,0Zm-10.29-2h8.29v-2a4.14,4.14,0,1,0-8.29,0Z"/><rect class="cls-7" x="207.07" y="200.52" width="27.91" height="2"/><rect class="cls-1" x="220.13" y="77.67" width="2" height="10.46"/><rect class="cls-2" x="200.19" y="102.61" width="41.86" height="2"/><path class="cls-1" d="M237.82,99.67h-33.4v-1a5.75,5.75,0,0,1,5.74-5.74h21.91a5.75,5.75,0,0,1,5.74,5.74Zm-31.26-2h29.12a3.75,3.75,0,0,0-3.61-2.74H210.17A3.75,3.75,0,0,0,206.56,97.67Z"/><path class="cls-2" d="M227.36,94.37H214.89v-1a6.23,6.23,0,1,1,12.47,0Zm-10.35-2h8.23a4.23,4.23,0,0,0-8.23,0Z"/><rect class="cls-1" x="755.67" y="227.51" width="155.33" height="2"/><path class="cls-1" d="M913.06,259.69h-2V196.33a9.16,9.16,0,1,0-18.31,0v.61h-2v-.61a11.16,11.16,0,1,1,22.31,0Z"/><circle class="cls-3" cx="891.75" cy="203.44" r="6.5"/><path class="cls-5" d="M891.75,210.94a7.5,7.5,0,1,1,7.5-7.5A7.51,7.51,0,0,1,891.75,210.94Zm0-13a5.5,5.5,0,1,0,5.5,5.5A5.51,5.51,0,0,0,891.75,197.94Z"/><path class="cls-1" d="M918.75,259.69h-2V206.08a11.16,11.16,0,1,1,22.31,0v.61h-2v-.61a9.16,9.16,0,1,0-18.31,0Z"/><circle class="cls-3" cx="938.06" cy="213.19" r="6.5"/><path class="cls-5" d="M938.06,220.69a7.5,7.5,0,1,1,7.5-7.5A7.51,7.51,0,0,1,938.06,220.69Zm0-13a5.5,5.5,0,1,0,5.5,5.5A5.51,5.51,0,0,0,938.06,207.69Z"/><path class="cls-3" d="M823.4,251.3h-4.22a5.37,5.37,0,0,1-5.37-5.37V219.87a5.37,5.37,0,0,1,5.37-5.37h64.23a8,8,0,0,1,6.81,3.79l4.23,6.82a8,8,0,0,1,.73,1.51L898.92,237v9.7a4.64,4.64,0,0,1-4.64,4.64h-6.41"/><path class="cls-1" d="M894.28,252.3h-6.41v-2h6.41a3.64,3.64,0,0,0,3.64-3.64v-9.52L894.25,227a7.07,7.07,0,0,0-.64-1.32l-4.23-6.82a7,7,0,0,0-6-3.31H819.18a4.37,4.37,0,0,0-4.37,4.37v26.06a4.37,4.37,0,0,0,4.37,4.37h4.22v2h-4.22a6.37,6.37,0,0,1-6.37-6.37V219.87a6.37,6.37,0,0,1,6.37-6.37h64.23a9,9,0,0,1,7.66,4.26l4.23,6.82a9,9,0,0,1,.82,1.7l3.79,10.51v9.87A5.64,5.64,0,0,1,894.28,252.3Z"/><path class="cls-2" d="M829.71,258.61a7.3,7.3,0,1,1,7.3-7.3A7.31,7.31,0,0,1,829.71,258.61Zm0-12.61a5.3,5.3,0,1,0,5.3,5.3A5.31,5.31,0,0,0,829.71,246Z"/><path class="cls-1" d="M829.71,255.12a3.82,3.82,0,1,1,3.82-3.82A3.82,3.82,0,0,1,829.71,255.12Zm0-5.63a1.82,1.82,0,1,0,1.82,1.82A1.82,1.82,0,0,0,829.71,249.49Z"/><path class="cls-2" d="M881.57,258.61a7.3,7.3,0,1,1,7.3-7.3A7.31,7.31,0,0,1,881.57,258.61Zm0-12.61a5.3,5.3,0,1,0,5.3,5.3A5.31,5.31,0,0,0,881.57,246Z"/><path class="cls-1" d="M881.57,255.12a3.82,3.82,0,1,1,3.82-3.82A3.82,3.82,0,0,1,881.57,255.12Zm0-5.63a1.82,1.82,0,1,0,1.82,1.82A1.82,1.82,0,0,0,881.57,249.49Z"/><rect class="cls-1" x="832.54" y="214.51" width="2" height="16.8"/><rect class="cls-1" x="854.46" y="214.51" width="2" height="16.8"/><rect class="cls-1" x="874.18" y="214.51" width="2" height="16.8"/><polygon class="cls-2" points="898.02 238.52 893.27 238.52 875.1 232.31 813.82 232.31 813.82 230.31 875.43 230.31 893.61 236.52 898.02 236.52 898.02 238.52"/><rect class="cls-1" x="836.01" y="250.3" width="39.26" height="2"/><rect class="cls-2" x="851.62" y="244.73" width="8.04" height="2"/><polygon class="cls-1" points="868.51 251.3 866.51 251.3 866.51 242.18 844.4 242.18 844.4 251.3 842.4 251.3 842.4 240.18 868.51 240.18 868.51 251.3"/><rect class="cls-1" x="894.54" y="241.27" width="4.38" height="2"/><rect class="cls-1" x="883.42" y="213.51" width="16.78" height="2"/><path class="cls-1" d="M900.29,224.82a3.29,3.29,0,0,1-3.28-3.28v-4.75a3.28,3.28,0,1,1,6.57,0v4.75A3.29,3.29,0,0,1,900.29,224.82Zm0-9.31a1.28,1.28,0,0,0-1.28,1.28v4.75a1.28,1.28,0,0,0,2.57,0v-4.75A1.28,1.28,0,0,0,900.29,215.51Z"/><path class="cls-2" d="M551.49,23.25H516.57V22.15a6.67,6.67,0,0,0-5.79-6.55l-1-.13.13-1a9.63,9.63,0,0,1,9.54-8.4h26.82a9.63,9.63,0,0,1,9.62,9.62V17l-.63.25a6,6,0,0,0-3.71,5.08Zm-33-2h31.17a8,8,0,0,1,4.2-5.58,7.63,7.63,0,0,0-7.62-7.57H519.45a7.63,7.63,0,0,0-7.38,5.73A8.69,8.69,0,0,1,518.52,21.25Z"/><path class="cls-1" d="M576.49,23.25h-27l.08-1.07a8,8,0,0,1,5-6.79,7.9,7.9,0,0,1,3-.58h11a8,8,0,0,1,7.92,7.37Zm-24.75-2h22.5a6,6,0,0,0-5.75-4.44h-11a5.9,5.9,0,0,0-2.22.43A6,6,0,0,0,551.74,21.25Z"/><path class="cls-1" d="M518.57,23.25h-26.9v-1a8.68,8.68,0,0,1,8.66-8.7h9.58a8.73,8.73,0,0,1,8.66,8.66Zm-24.83-2H516.5a6.68,6.68,0,0,0-5.72-5.64,6.86,6.86,0,0,0-.87-.06h-9.58A6.67,6.67,0,0,0,493.73,21.25Z"/><path class="cls-1" d="M479.43,49H428.2V48a10.46,10.46,0,0,0-9.08-10.35l-1-.13.13-1A13.89,13.89,0,0,1,432,24.39h40.07A13.9,13.9,0,0,1,486,38.26v1.57l-.63.25a9.43,9.43,0,0,0-5.84,8Zm-49.26-2h47.44A11.46,11.46,0,0,1,484,38.5v-.24a11.89,11.89,0,0,0-11.88-11.88H432a11.89,11.89,0,0,0-11.61,9.42A12.48,12.48,0,0,1,430.17,47Z"/><path class="cls-2" d="M516.71,49H477.42l.08-1.07a11.44,11.44,0,0,1,7.09-9.72,11.3,11.3,0,0,1,4.25-.83h16.45a11.41,11.41,0,0,1,11.34,10.55Zm-37.07-2h34.86a9.41,9.41,0,0,0-9.2-7.62H488.84a9.3,9.3,0,0,0-3.5.68A9.44,9.44,0,0,0,479.64,47Z"/><path class="cls-2" d="M429.2,49H391V48a12.47,12.47,0,0,1,12.45-12.5h14.31a12.81,12.81,0,0,1,1.62.11A12.47,12.47,0,0,1,430.21,48v1ZM393,47h35.12a10.47,10.47,0,0,0-9-9.41,10.78,10.78,0,0,0-1.36-.1H403.45A10.46,10.46,0,0,0,393,47Z"/><path class="cls-1" d="M1012.36,80.41h-38v-1.1c0-12.45,8-22.57,17.74-22.57H1013a14.31,14.31,0,0,1,2.35.21c6,1,11.11,5.77,13.7,12.74l.5,1.35h-10.32a5.3,5.3,0,0,0-2.47.62h0c-2.45,1.27-4.15,4.33-4.34,7.8Zm-36-2h34.15a10.89,10.89,0,0,1,5.33-8.52,7.28,7.28,0,0,1,3.39-.85h7.39c-2.45-5.55-6.71-9.29-11.61-10.12a12.14,12.14,0,0,0-2-.19H992.08C983.63,58.74,976.71,67.49,976.35,78.41Z"/><path class="cls-2" d="M1041.06,80.34h-30.16l.06-1.05c.23-4.22,2.31-7.85,5.42-9.46a7.29,7.29,0,0,1,3.39-.85h12.43c4.62,0,8.49,4.53,8.81,10.31Zm-28-2h25.84c-.61-4.21-3.42-7.37-6.7-7.37h-12.43a5.31,5.31,0,0,0-2.47.62A9,9,0,0,0,1013.05,78.34Z"/><rect class="cls-1" x="548.68" y="199.29" width="2" height="60.5"/><path class="cls-1" d="M550.1,213.38h-.42v-2h.42a5.67,5.67,0,0,0,5.66-5.66h2A7.67,7.67,0,0,1,550.1,213.38Z"/><path class="cls-1" d="M549.89,217.86a9.22,9.22,0,0,1-9.21-9.21v-.51h2v.51a7.22,7.22,0,0,0,7.21,7.21Z"/><path class="cls-1" d="M549.89,208.72a6.25,6.25,0,0,1-6.24-6.24v-.33h2v.33a4.24,4.24,0,0,0,4.24,4.24Z"/><path class="cls-2" d="M549.68,222.84a14.77,14.77,0,1,1,14.77-14.77A14.79,14.79,0,0,1,549.68,222.84Zm0-27.54a12.77,12.77,0,1,0,12.77,12.77A12.78,12.78,0,0,0,549.68,195.3Z"/><rect class="cls-1" x="526.44" y="223.14" width="2" height="35.18"/><path class="cls-1" d="M527.72,234.23h-.28v-2h.28a3.53,3.53,0,0,0,3.53-3.53h2A5.53,5.53,0,0,1,527.72,234.23Z"/><path class="cls-1" d="M527.58,230.07a5.27,5.27,0,0,1-5.27-5.27v-.27h2v.27a3.27,3.27,0,0,0,3.27,3.27Z"/><path class="cls-2" d="M527.44,239.06a10.11,10.11,0,1,1,10.11-10.11A10.12,10.12,0,0,1,527.44,239.06Zm0-18.22a8.11,8.11,0,1,0,8.11,8.11A8.12,8.12,0,0,0,527.44,220.84Z"/><rect class="cls-3" x="671.96" y="138.84" width="8.11" height="16.77"/><path class="cls-1" d="M681.08,156.61H671V137.84h10.11Zm-8.11-2h6.11V139.84H673Z"/><rect class="cls-1" x="675.02" y="123.17" width="2" height="16.21"/><rect class="cls-2" x="675.02" y="188.07" width="2" height="17.58"/><rect class="cls-2" x="666.91" y="188.07" width="2" height="17.58"/><rect class="cls-2" x="658.79" y="188.07" width="2" height="17.58"/><rect class="cls-2" x="650.68" y="188.07" width="2" height="17.58"/><rect class="cls-2" x="683.13" y="188.07" width="2" height="17.58"/><rect class="cls-2" x="691.25" y="188.07" width="2" height="17.58"/><rect class="cls-2" x="699.36" y="188.07" width="2" height="17.58"/><rect class="cls-2" x="657.44" y="207" width="2" height="30.26"/><rect class="cls-2" x="649.33" y="207" width="2" height="30.57"/><rect class="cls-2" x="639.86" y="207" width="2" height="29.75"/><rect class="cls-2" x="666.91" y="207" width="2" height="30.26"/><rect class="cls-2" x="675.02" y="207" width="2" height="30.26"/><rect class="cls-2" x="683.13" y="207" width="2" height="29.75"/><rect class="cls-2" x="691.25" y="207" width="2" height="29.75"/><rect class="cls-2" x="700.71" y="207" width="2" height="29.75"/><rect class="cls-2" x="710.18" y="207" width="2" height="29.75"/><rect class="cls-2" x="648.98" y="237.1" width="54.09" height="2"/><path class="cls-1" d="M700,183.24h-2v-5.86c0-6.82-2.92-12.35-8.92-16.91a21.41,21.41,0,0,0-26.13,0C657,165,654,170.55,654,177.38v5.86h-2v-5.86c0-7.49,3.18-13.54,9.71-18.5a23.4,23.4,0,0,1,28.55,0c6.54,5,9.71,11,9.71,18.5Z"/><path class="cls-2" d="M702.71,189.07H649.33v-7.41h53.38Zm-51.38-2h49.38v-3.41H651.33Z"/><rect class="cls-3" x="666.56" y="151.56" width="18.93" height="5.41"/><path class="cls-2" d="M686.49,158H665.56v-7.41h20.93Zm-18.93-2h16.93v-3.41H667.56Z"/><path class="cls-2" d="M735.17,244.51H616.88V237.1H735.17Zm-116.29-2H733.17V239.1H618.88Z"/><rect class="cls-3" x="617.88" y="202.94" width="116.29" height="5.41"/><path class="cls-2" d="M735.17,209.35H616.88v-7.41H735.17Zm-116.29-2H733.17v-3.41H618.88Z"/><polygon class="cls-3" points="651.99 208.35 676.02 200.34 700.05 208.35 651.99 208.35"/><path class="cls-1" d="M706.21,209.35H645.83L676,199.29Zm-48.05-2h35.73l-17.87-6Z"/><rect class="cls-2" x="620.93" y="208.35" width="2" height="28.4"/><rect class="cls-2" x="729.11" y="208.35" width="2" height="28.4"/><path class="cls-4" d="M728.7,244a19.61,19.61,0,0,1-4.63-.57c-.11.38-.24.75-.38,1.11h7.84c-.05-.25-.12-.49-.16-.74A19.67,19.67,0,0,1,728.7,244Z"/><path class="cls-3" d="M680.9,243.53a9.59,9.59,0,0,1-.06-1,12.25,12.25,0,0,1,23-5.81,12.24,12.24,0,0,1,11.69-9.62,15.75,15.75,0,0,1,31.27-2.19,15.76,15.76,0,0,1,17.61,18.66S680.9,243.61,680.9,243.53Z"/><path class="cls-1" d="M702.55,244.57H681.83c-1.1,0-1.9,0-1.93-1a10.25,10.25,0,0,1-.06-1.09,13.25,13.25,0,0,1,23.71-8.14,13.19,13.19,0,0,1,11.07-8.24,16.75,16.75,0,0,1,33-2.34c.47,0,.91-.06,1.34-.06a16.77,16.77,0,0,1,16.45,20l-.16.81h-.82l-41.78,0Zm-20.72-2c7.11,0,55.07,0,81.76,0A14.77,14.77,0,0,0,749,225.71a14.66,14.66,0,0,0-2,.15l-1,.13-.16-1a14.74,14.74,0,0,0-29.29,2.05l0,1-1,0a11.2,11.2,0,0,0-10.73,8.83l-.58,2.64L703,237.16a11.25,11.25,0,0,0-21.16,5.33Z"/><path class="cls-3" d="M614.48,239.47a14,14,0,0,1,27.35-4c.3,0,.59,0,.9,0a14.57,14.57,0,0,1,13,8.07H615.08A14,14,0,0,1,614.48,239.47Z"/><path class="cls-1" d="M657.38,244.51h-43l-.21-.71a15,15,0,0,1,28.42-9.35h.19a15.51,15.51,0,0,1,13.93,8.62Zm-41.54-2H654a13.5,13.5,0,0,0-11.31-6.07l-.59,0-1,.06-.23-.76a13,13,0,0,0-25,6.74Z"/><rect class="cls-1" x="356.25" y="241.17" width="20" height="2"/><rect class="cls-2" x="254.06" y="157.63" width="143.88" height="2" transform="translate(153.82 477.68) rotate(-87.59)"/><rect class="cls-2" x="343.25" y="86.19" width="2" height="143.88" transform="translate(-6.3 14.5) rotate(-2.39)"/><rect class="cls-2" x="334.54" y="85.17" width="2" height="144.17"/><polygon class="cls-1" points="371 231.01 369 231.01 369 171.51 361 171.51 361 132.51 350 132.51 350 130.51 363 130.51 363 169.51 371 169.51 371 231.01"/><rect class="cls-5" x="296" y="156" width="6" height="2"/><rect class="cls-5" x="296" y="162.91" width="6" height="2"/><rect class="cls-5" x="296" y="169.81" width="6" height="2"/><rect class="cls-5" x="296" y="176.71" width="6" height="2"/><rect class="cls-5" x="296" y="183.62" width="6" height="2"/><rect class="cls-5" x="296" y="190.52" width="6" height="2"/><rect class="cls-5" x="296" y="197.42" width="6" height="2"/><rect class="cls-5" x="296" y="204.32" width="6" height="2"/><rect class="cls-5" x="296" y="211.23" width="6" height="2"/><rect class="cls-5" x="296" y="218.13" width="6" height="2"/><rect class="cls-1" x="306.51" y="156" width="1.48" height="2"/><rect class="cls-1" x="306.51" y="162.91" width="1.48" height="2"/><rect class="cls-1" x="306.51" y="169.81" width="1.48" height="2"/><rect class="cls-1" x="306.51" y="142.24" width="1.48" height="2"/><rect class="cls-1" x="306.51" y="149.14" width="1.48" height="2"/><rect class="cls-1" x="306.51" y="176.71" width="1.48" height="2"/><rect class="cls-1" x="306.51" y="183.62" width="1.48" height="2"/><rect class="cls-1" x="306.51" y="190.52" width="1.48" height="2"/><rect class="cls-1" x="306.51" y="197.42" width="1.48" height="2"/><rect class="cls-1" x="306.51" y="204.32" width="1.48" height="2"/><rect class="cls-1" x="306.51" y="211.23" width="1.48" height="2"/><rect class="cls-1" x="306.51" y="218.13" width="1.48" height="2"/><path class="cls-1" d="M1018.69,229.27l-13.15-9.15-13.15,9.15L997,213.94l-12.77-9.68,16-.33,5.26-15.14,5.26,15.14,16,.33-12.77,9.68Zm-28.64-23.13,9.29,7L996,224.34l9.57-6.66,9.57,6.66-3.38-11.16,9.29-7-11.66-.24-3.83-11-3.83,11Z"/><path class="cls-2" d="M1005.54,217a4.5,4.5,0,1,1,4.5-4.5A4.5,4.5,0,0,1,1005.54,217Zm0-7a2.5,2.5,0,1,0,2.5,2.5A2.5,2.5,0,0,0,1005.54,210Z"/><path class="cls-1" d="M722.5,36.36C699.79,36.36,682,30,682,21.85S699.79,7.35,722.5,7.35,763,13.72,763,21.85,745.2,36.36,722.5,36.36Zm0-27c-23,0-38.5,6.47-38.5,12.51s15.47,12.51,38.5,12.51S761,27.89,761,21.85,745.52,9.35,722.5,9.35Z"/><path class="cls-2" d="M753.71,13.07l-2-.39,1.79-9-1.91.08a7.11,7.11,0,0,0-6,3.79l-1.59,3-1.77-.93,1.59-3a9.11,9.11,0,0,1,7.66-4.86L756,1.6Z"/><path class="cls-2" d="M756,41.67l-4.46-.19a9.12,9.12,0,0,1-7.66-4.86l-1.59-3,1.77-.93,1.59,3a7.11,7.11,0,0,0,6,3.79l1.91.08-1.79-9,2-.39Z"/><path class="cls-2" d="M725.13,26.74a231.73,231.73,0,0,1-42.34-3.91l.41-2c.42.09,42.1,8.66,78.56,0l.46,1.95A162.86,162.86,0,0,1,725.13,26.74Z"/><path class="cls-2" d="M742,48.45H703v-8h39Zm-37-2h35v-4H705Z"/><rect class="cls-2" x="706.55" y="34.43" width="2" height="6.97"/><rect class="cls-2" x="736.3" y="34.43" width="2" height="6.51"/><path class="cls-2" d="M784.25,26.75a6,6,0,1,1,6-6A6,6,0,0,1,784.25,26.75Zm0-10a4,4,0,1,0,4,4A4,4,0,0,0,784.25,16.75Z"/><path class="cls-1" d="M772.5,34.76A4.75,4.75,0,1,1,777.25,30,4.76,4.76,0,0,1,772.5,34.76Zm0-7.5A2.75,2.75,0,1,0,775.25,30,2.75,2.75,0,0,0,772.5,27.26Z"/><path class="cls-2" d="M209.91,217.32l-2-.21,8.36-80.4a21.37,21.37,0,0,0-.37-6.69l-4.48-20.74,2-.42,4.48,20.74a23.36,23.36,0,0,1,.41,7.32Z"/><path class="cls-2" d="M232.34,217.32,224,136.92a23.37,23.37,0,0,1,.41-7.32l4.48-20.74,2,.42L226.34,130a21.38,21.38,0,0,0-.37,6.69l8.36,80.39Z"/><rect class="cls-1" x="220.13" y="113.01" width="2" height="64.25"/><path class="cls-2" d="M762,37.75a3.25,3.25,0,1,1,3.25-3.25A3.25,3.25,0,0,1,762,37.75Zm0-4.5a1.25,1.25,0,1,0,1.25,1.25A1.25,1.25,0,0,0,762,33.25Z"/><path class="cls-1" d="M197.18,179.52H176.84V165.29h20.34Zm-18.34-2h16.34V167.29H178.84Z"/><path class="cls-1" d="M165.08,231.48H144.74v-66.2h20.34Zm-18.34-2h16.34v-62.2H146.74Z"/><rect class="cls-3" x="164.08" y="201.44" width="92.8" height="29.04"/><path class="cls-1" d="M257.88,231.48h-94.8v-31h94.8Zm-92.8-2h90.8v-27h-90.8Z"/><path class="cls-1" d="M161.91,167.29H147.79V127.08h14.11Zm-12.11-2h10.11V129.08H149.79Z"/><path class="cls-1" d="M194.12,167.29H179.89V127.08h14.23Zm-12.23-2h10.23V129.08H181.89Z"/><polygon class="cls-3" points="164.08 178.52 240.07 178.52 258.41 201.44 164.08 201.44 164.08 178.52"/><path class="cls-1" d="M260.49,202.44H163.08V177.52h77.47Zm-95.41-2h91.25l-16.74-20.93H165.08Z"/><path class="cls-2" d="M181.89,231.48H170.72V212.14a5.59,5.59,0,1,1,11.17,0Zm-9.17-2h7.17V212.14a3.59,3.59,0,1,0-7.17,0Z"/><path class="cls-2" d="M198.71,231.48H187.54V212.14a5.59,5.59,0,1,1,11.17,0Zm-9.17-2h7.17V212.14a3.59,3.59,0,1,0-7.17,0Z"/><path class="cls-2" d="M215.52,231.48H204.35V212.14a5.59,5.59,0,1,1,11.17,0Zm-9.17-2h7.17V212.14a3.59,3.59,0,1,0-7.17,0Z"/><path class="cls-1" d="M232,231.48H220.85V212.14a5.59,5.59,0,1,1,11.17,0Zm-9.17-2H230V212.14a3.59,3.59,0,1,0-7.17,0Z"/><path class="cls-2" d="M248.41,231.48H237.24V212.14a5.59,5.59,0,1,1,11.17,0Zm-9.17-2h7.17V212.14a3.59,3.59,0,1,0-7.17,0Z"/><rect class="cls-2" x="164.99" y="189.74" width="84.25" height="2"/><rect class="cls-2" x="153.91" y="135.72" width="2" height="7.64"/><rect class="cls-2" x="186.01" y="135.72" width="2" height="7.64"/><path class="cls-2" d="M161.63,128.87l-1.22-1.59a6.47,6.47,0,0,0,2.67-5.08c0-3.79-3.67-6.88-8.17-6.88s-8.17,3.09-8.17,6.88a6.46,6.46,0,0,0,2.67,5.08l-1.22,1.59a8.45,8.45,0,0,1-3.45-6.67c0-4.9,4.56-8.88,10.17-8.88s10.17,4,10.17,8.88A8.45,8.45,0,0,1,161.63,128.87Z"/><path class="cls-2" d="M193.73,128.87l-1.22-1.59a6.46,6.46,0,0,0,2.67-5.08c0-3.79-3.67-6.88-8.17-6.88s-8.17,3.09-8.17,6.88a6.47,6.47,0,0,0,2.67,5.08l-1.22,1.58a8.45,8.45,0,0,1-3.45-6.67c0-4.9,4.56-8.88,10.17-8.88s10.17,4,10.17,8.88A8.45,8.45,0,0,1,193.73,128.87Z"/><rect class="cls-2" x="153.91" y="180.04" width="2" height="3.06"/><rect class="cls-1" x="153.91" y="193.8" width="2" height="3.06"/><rect class="cls-2" x="153.91" y="207.56" width="2" height="3.06"/><rect class="cls-2" x="153.91" y="109.73" width="2" height="4.58"/><rect class="cls-2" x="186.01" y="109.73" width="2" height="4.58"/><rect class="cls-3" x="209.13" y="165.76" width="24" height="6.75"/><path class="cls-1" d="M234.13,173.51h-26v-8.75h26Zm-24-2h22v-4.75h-22Z"/><path class="cls-3" d="M205.43,108.07h31.4a0,0,0,0,1,0,0v0a4.42,4.42,0,0,1-4.42,4.42H209.85a4.42,4.42,0,0,1-4.42-4.42v0A0,0,0,0,1,205.43,108.07Z"/><path class="cls-1" d="M232.4,113.49H209.85a5.43,5.43,0,0,1-5.42-5.42v-1h33.4v1A5.43,5.43,0,0,1,232.4,113.49Zm-25.83-4.42a3.43,3.43,0,0,0,3.27,2.42H232.4a3.43,3.43,0,0,0,3.27-2.42Z"/><rect class="cls-1" x="420.94" y="241.16" width="21.06" height="2"/><path class="cls-1" d="M434.49,215.76a2.87,2.87,0,1,1,2.87-2.87A2.87,2.87,0,0,1,434.49,215.76Zm0-3.74a.87.87,0,1,0,.87.87A.87.87,0,0,0,434.49,212Z"/><rect class="cls-1" x="433.49" y="223.14" width="2" height="19.02"/><rect class="cls-1" x="433.49" y="214.76" width="2" height="3.04"/><polygon class="cls-1" points="442.06 233.23 434.84 233.23 434.84 231.23 441.18 231.23 442.83 229.4 441.24 227.97 434.84 227.97 434.84 225.97 442 225.97 445.67 229.25 442.06 233.23"/><polygon class="cls-3" points="424.32 220.58 426.95 217.81 441.55 217.81 444.25 220.44 441.55 223.14 426.95 223.14 424.32 220.58"/><path class="cls-2" d="M442,224.14H426.54l-3.63-3.53,3.61-3.8H442l3.72,3.62Zm-14.61-2h13.78l1.69-1.69-1.68-1.64H427.38l-1.65,1.74Z"/><rect class="cls-2" x="109.92" y="145.84" width="2" height="84"/><rect class="cls-2" x="131" y="145.84" width="2" height="84"/><rect class="cls-1" x="111.94" y="183.27" width="19.12" height="2"/><rect class="cls-2" x="90" y="200.44" width="55" height="2"/><path class="cls-1" d="M132.5,120.75H110.42L114.5,111h13.92Zm-19.08-2H129.5L127.09,113H115.83Z"/><rect class="cls-1" x="111.88" y="165.77" width="19.19" height="2"/><path class="cls-2" d="M135.5,146.84H107.41V118.75H135.5Zm-26.09-2H133.5V120.75H109.41Z"/><path class="cls-1" d="M126.87,105.58H116l5.41-15.79Zm-8-2h5.22L121.46,96Z"/><path class="cls-1" d="M121.46,142.67a9.88,9.88,0,1,1,9.88-9.88A9.89,9.89,0,0,1,121.46,142.67Zm0-17.76a7.88,7.88,0,1,0,7.88,7.88A7.89,7.89,0,0,0,121.46,124.92Z"/><path class="cls-2" d="M129,113h-15v-9.39h15Zm-13-2h11v-5.39h-11Z"/><rect class="cls-2" x="120.46" y="80.66" width="2" height="12.22"/><polygon class="cls-5" points="125.47 134.52 120.46 134.52 120.46 127.4 122.46 127.4 122.46 132.52 125.47 132.52 125.47 134.52"/><rect class="cls-1" x="111.94" y="206.27" width="19.12" height="2"/><rect class="cls-1" x="111.94" y="219.28" width="19.12" height="2"/><rect class="cls-1" x="102.5" y="196.5" width="2" height="34"/><rect class="cls-1" x="138.5" y="196.5" width="2" height="34"/><rect class="cls-2" x="95" y="196.5" width="2" height="34"/><path class="cls-2" d="M582.93,252.42l-7.25-20.29,4.7-1.14a3,3,0,0,1,3.7,3l-.08,2.54-2-.06.08-2.54a1,1,0,0,0-1.23-1l-2.54.62,6.5,18.2Z"/><polygon class="cls-2" points="558.19 252.46 566.72 241.76 568.28 243 562.42 250.36 572.6 250.13 572.65 252.13 558.19 252.46"/><rect class="cls-2" x="569.02" y="245.17" width="13.14" height="2" transform="translate(39.76 569.88) rotate(-54.29)"/><rect class="cls-2" x="567.77" y="236.37" width="2" height="19.48" transform="translate(-50.45 271.31) rotate(-25.73)"/><path class="cls-1" d="M583.83,259.31a7.31,7.31,0,1,1,7.31-7.31A7.32,7.32,0,0,1,583.83,259.31Zm0-12.62a5.31,5.31,0,1,0,5.31,5.31A5.32,5.32,0,0,0,583.83,246.69Z"/><path class="cls-1" d="M559.41,259.31a7.31,7.31,0,1,1,7.31-7.31A7.32,7.32,0,0,1,559.41,259.31Zm0-12.62a5.31,5.31,0,1,0,5.31,5.31A5.32,5.32,0,0,0,559.41,246.69Z"/><rect class="cls-2" x="566.47" y="240.76" width="12.06" height="2" transform="translate(-20.69 56.49) rotate(-5.55)"/><line class="cls-3" x1="559.5" y1="237.67" x2="569.17" y2="236.34"/><rect class="cls-1" x="559.45" y="236.01" width="9.76" height="2" transform="translate(-27.11 79.41) rotate(-7.86)"/><path class="cls-2" d="M167.43,14.11,159.46,0h7.81a7.72,7.72,0,0,1,4.66,1.51l11.23,8.33L182,11.45,170.73,3.11A5.72,5.72,0,0,0,167.26,2h-4.38l6.29,11.12Z"/><circle class="cls-1" cx="161.64" cy="19.87" r="0.93"/><circle class="cls-1" cx="166.72" cy="19.87" r="0.93"/><circle class="cls-1" cx="171.8" cy="19.87" r="0.93"/><circle class="cls-1" cx="176.88" cy="19.87" r="0.93"/><circle class="cls-1" cx="181.96" cy="19.87" r="0.93"/><circle class="cls-1" cx="187.03" cy="19.87" r="0.93"/><circle class="cls-1" cx="192.11" cy="19.87" r="0.93"/><rect class="cls-2" x="73.01" y="15.51" width="53.47" height="2"/><rect class="cls-1" x="94.96" y="7.76" width="27.77" height="2"/><rect class="cls-1" x="50.42" y="22.86" width="79.23" height="2"/><path class="cls-1" d="M198.42,20.44l-.15-2c2.15-.16,8.15-1.05,10-3.22a1.79,1.79,0,0,0,.48-1.38l2-.18a3.77,3.77,0,0,1-.95,2.86C207.07,19.71,199.3,20.38,198.42,20.44Z"/><path class="cls-2" d="M156.28,38.46,165,27.13h-19.6A9.93,9.93,0,0,1,136.16,21l-7.22-17.5,8.8.86a5.64,5.64,0,0,1,3.74,1.94l3.93,4.55a10.69,10.69,0,0,0,10,3.52l41-7.45a12.49,12.49,0,0,1,11.29,3.67l6.78,7.09a5.83,5.83,0,0,1-4.22,9.86H184.54l-13.83,8.73a12.3,12.3,0,0,1-6.06,1.89ZM132.06,5.78l6,14.42a7.94,7.94,0,0,0,7.36,4.92H169l-8.56,11.16,4.1-.17a10.29,10.29,0,0,0,5.07-1.58l14.32-9H210.2A3.83,3.83,0,0,0,213,19l-6.78-7.09a10.48,10.48,0,0,0-9.49-3.08l-41,7.45a12.7,12.7,0,0,1-11.84-4.18L140,7.57a3.65,3.65,0,0,0-2.42-1.25Z"/><path class="cls-2" d="M415.19,233.84c-7.85-18.12-13.07-34.94-13.07-58.12V153.06h2v22.66c0,22.84,5.16,39.44,12.9,57.33Z"/><path class="cls-2" d="M428.68,259.44a152,152,0,0,1-9.78-18.89H378.38a152,152,0,0,1-9.78,18.89l-1.71-1a150.39,150.39,0,0,0,9.92-19.24l.26-.6h43.15l.26.61a150.5,150.5,0,0,0,9.92,19.24Z"/><path class="cls-3" d="M336,254.47a14,14,0,0,1,27.35-4c.3,0,.59,0,.9,0a14.57,14.57,0,0,1,13,8.07H336.58A14,14,0,0,1,336,254.47Z"/><path class="cls-1" d="M378.89,259.51h-43l-.21-.71A15,15,0,0,1,364,249.44h.19a15.51,15.51,0,0,1,13.93,8.62Zm-41.54-2h38.19a13.5,13.5,0,0,0-11.3-6.07l-.59,0-1,.06-.23-.76a13,13,0,0,0-25,6.74Z"/><path class="cls-3" d="M463,254.47a14,14,0,0,0-27.35-4c-.3,0-.59,0-.9,0a14.57,14.57,0,0,0-13,8.07h40.69A14,14,0,0,0,463,254.47Z"/><path class="cls-1" d="M463.13,259.51h-43l.73-1.45a15.51,15.51,0,0,1,13.93-8.62h.19a15,15,0,0,1,28.42,9.35Zm-39.7-2h38.19a13,13,0,0,0-25-6.74l-.23.76-1-.06-.59,0A13.5,13.5,0,0,0,423.43,257.51Z"/><path class="cls-2" d="M407.25,234.13H389.64l4.52-7.84a4.89,4.89,0,0,1,4.28-2.47h0a4.89,4.89,0,0,1,4.28,2.47Zm-14.15-2h10.68L401,227.3a2.91,2.91,0,0,0-2.55-1.47h0a2.91,2.91,0,0,0-2.55,1.47Z"/><path class="cls-1" d="M420.93,240.47h-44.3V232.2h44.3Zm-42.3-2h40.3V234.2h-40.3Z"/><path class="cls-1" d="M381.63,260.17H0v-1a29.7,29.7,0,0,1,29.67-29.67H376v2H29.67A27.7,27.7,0,0,0,2,258.17H381.63Z"/><rect class="cls-3" x="385.63" y="208.78" width="26.29" height="6.28"/><path class="cls-1" d="M412.92,216.06H384.63v-8.28h28.29Zm-26.29-2h24.29v-4.28H386.63Z"/><path class="cls-3" d="M95.8,162c-.92-.54-1.84-1-2.77-1.48a44.18,44.18,0,0,1,14.91-3.2c9.9-.17,21.09,2.57,21.09,2.57-2.9-6.5-13.27-11.34-26.26-11.83a32,32,0,0,1,6.76-10.56c4.94-5,12.48-8.74,12.48-8.74-8-5.63-22.43-.88-34.05,11a50.36,50.36,0,0,0-8.11,10.7A36,36,0,0,0,68.94,134c-9.19-8-19.85-9.56-26-4.61,0,0,8.58,2.17,14.32,7.17,5.31,4.62,7.8,12.09,7.8,12.09-1.08-.26-2.18-.49-3.31-.69-14.34-2.52-27,.7-31.39,7.22a88.15,88.15,0,0,1,18.82.95,89.7,89.7,0,0,1,18,5.51A35.23,35.23,0,0,0,61,164.23c-9.55,5.17-14.7,13.52-13.2,20.15A64.49,64.49,0,0,1,61.2,174a48.75,48.75,0,0,1,14.43-4.74l-1.08,16.38,4.4-5.59c0,5.33-.25,11.36-.87,17.62-2.8,28.12-9.83,61.48-9.83,61.48H85.46s4.42-34.09,4.42-62.22A160.58,160.58,0,0,0,87.45,170a17.89,17.89,0,0,1,8.36,2.27c6.9,3.91,14.92,11.28,14.92,11.28C111.86,176.9,106,168,95.8,162Z"/><path class="cls-1" d="M86.34,260.16H67l.25-1.21c.07-.33,7.05-33.62,9.82-61.37.46-4.64.74-9.53.83-14.58l-4.57,5.82,1.21-18.34a47.37,47.37,0,0,0-12.87,4.41,63.85,63.85,0,0,0-13.19,10.17l-1.29,1.33-.41-1.8c-1.65-7.25,4-16,13.7-21.25a35.88,35.88,0,0,1,3.84-1.79A86,86,0,0,0,49,157.1a87.89,87.89,0,0,0-18.58-.94l-2,.15,1.14-1.7c4.71-7,18-10.16,32.39-7.64l1.51.29a28.84,28.84,0,0,0-6.83-9.95c-5.49-4.78-13.83-6.93-13.91-7l-1.95-.49,1.57-1.26c6.73-5.4,18-3.5,27.3,4.63a37.5,37.5,0,0,1,10.48,14.82,52.79,52.79,0,0,1,7.15-9c12.09-12.34,27-17,35.34-11.1l1.36,1-1.49.75c-.07,0-7.46,3.77-12.22,8.55a31,31,0,0,0-6,8.92c12.5.79,22.73,5.67,25.71,12.35l.83,1.86-2-.49c-.11,0-11.17-2.71-20.83-2.54a42.52,42.52,0,0,0-12.48,2.34l.83.47h0c10.3,6,16.64,15.33,15.42,22.58l-.31,1.81-1.36-1.25c-.08-.07-8-7.33-14.74-11.14a16.93,16.93,0,0,0-6.67-2.07,161.58,161.58,0,0,1,2.23,25.87c0,27.87-4.39,62-4.43,62.34Zm-16.86-2h15.1c.68-5.5,4.31-36,4.31-61.22a160.42,160.42,0,0,0-2.41-26.77L86.26,169h1.2a19,19,0,0,1,8.84,2.4,93.47,93.47,0,0,1,13.56,10c-.23-6.13-5.91-13.5-14.58-18.58h0c-.8-.47-1.66-.93-2.71-1.45l-1.94-1,2-.86a44.75,44.75,0,0,1,15.29-3.28,94.2,94.2,0,0,1,19.09,2.1c-3.82-5.26-13.18-8.94-24.29-9.36l-1.36-.05.46-1.28a32.73,32.73,0,0,1,7-10.93A53.52,53.52,0,0,1,120,128.73c-7.73-3.79-20.78,1-31.3,11.72a49.23,49.23,0,0,0-8,10.48L79.56,153l-.68-2.28a34.87,34.87,0,0,0-10.59-16c-7.83-6.81-17-9-23-5.71,3,1,8.48,3.14,12.65,6.76,5.45,4.74,8,12.21,8.09,12.52l.57,1.7-1.75-.41c-1.23-.29-2.26-.51-3.25-.68-12.36-2.17-23.81-.06-29,5.13a86.83,86.83,0,0,1,16.79,1.07,89.74,89.74,0,0,1,18.2,5.58L70,161.77l-2.53.8a34.26,34.26,0,0,0-6,2.53c-8.06,4.36-13.1,11.17-12.94,17.15a62.48,62.48,0,0,1,12.21-9.11,49.23,49.23,0,0,1,14.77-4.85l1.22-.17-.95,14.39,4.2-5.34v2.91c0,6.16-.32,12.12-.88,17.71C76.6,222.64,70.76,251.92,69.48,258.16Z"/><rect class="cls-2" x="100.8" y="249.37" width="2" height="9.79"/><rect class="cls-1" x="109.6" y="236.48" width="2" height="22.68"/><path class="cls-3" d="M98.63,190.48c-3-4.49-11.81-6.71-21.73-5-.78.14-1.54.3-2.29.48a21.61,21.61,0,0,1,5.4-8.33c4-3.44,9.91-4.94,9.91-4.94-4.27-3.41-11.65-2.34-18,3.18a24.81,24.81,0,0,0-7.54,11.35,34.73,34.73,0,0,0-5.62-7.38c-8-8.18-18-11.45-23.57-7.57a38.9,38.9,0,0,1,8.64,6,22,22,0,0,1,4.68,7.28c-9,.34-16.17,3.67-18.18,8.16A67.43,67.43,0,0,1,44.91,192a30.71,30.71,0,0,1,10.32,2.2c-.64.32-1.28.65-1.92,1C46.25,199.32,42.2,205.46,43,210.05a70,70,0,0,1,10.33-7.77,12.22,12.22,0,0,1,6.2-1.56l1.3-.2a107.93,107.93,0,0,0-1.22,15.75c0,19.39,3.06,42.89,3.06,42.89H74.56s-4.87-23-6.81-42.38a133,133,0,0,1-.57-16.06c3.2.48,7.44,1.33,10.08,2.76a44.62,44.62,0,0,1,9.3,7.14c1-4.56-2.53-10.32-9.14-13.89a24.4,24.4,0,0,0-4.27-1.8,62.27,62.27,0,0,1,12.44-3.8A61.3,61.3,0,0,1,98.63,190.48Z"/><path class="cls-2" d="M75.8,260.16h-14l-.11-.87c0-.24-3.07-23.79-3.07-43a106.89,106.89,0,0,1,1-14.56h-.19a11.26,11.26,0,0,0-5.64,1.43,69.41,69.41,0,0,0-10.15,7.64L42.3,212,42,210.22c-.87-5.12,3.57-11.64,10.78-15.86A28.71,28.71,0,0,0,44.89,193a65.75,65.75,0,0,0-14.34,1.74l-2,.48.83-1.86c2.11-4.7,8.94-8,17.61-8.67a20.88,20.88,0,0,0-3.9-5.65,38.06,38.06,0,0,0-8.38-5.83l-1.5-.75,1.37-1c5.93-4.16,16.39-.93,24.86,7.69a37.17,37.17,0,0,1,4.67,5.75,26.34,26.34,0,0,1,7.12-9.78c6.58-5.7,14.51-7,19.29-3.2l1.57,1.26-2,.5c-.06,0-5.77,1.49-9.5,4.73a19,19,0,0,0-4.41,6.2l.47-.09c10.06-1.76,19.41.46,22.73,5.4l1.15,1.7-2-.15a60.84,60.84,0,0,0-12.79.64,58,58,0,0,0-9.83,2.78q1,.43,2,1c6.84,3.69,10.81,9.86,9.64,15l-.41,1.79-1.28-1.32a44,44,0,0,0-9.06-7,30.79,30.79,0,0,0-8.63-2.47,129.46,129.46,0,0,0,.58,14.79c1.91,19.11,6.74,42,6.79,42.27Zm-12.26-2h9.8c-1-5-4.9-24.58-6.57-41.28a132.86,132.86,0,0,1-.57-16.18l0-1.13,1.12.17c3.21.48,7.63,1.37,10.41,2.87a42.59,42.59,0,0,1,8,5.83c-.28-3.82-3.62-8-8.78-10.82a23.57,23.57,0,0,0-4.09-1.72l-2.54-.8L72.76,194a62.76,62.76,0,0,1,12.67-3.87,59.63,59.63,0,0,1,10.83-.76c-3.78-3.06-11.32-4.27-19.19-2.9-.76.13-1.5.29-2.24.46l-1.75.41.57-1.7a22.44,22.44,0,0,1,5.69-8.77,26.26,26.26,0,0,1,8.14-4.47c-4.08-1.71-9.89-.15-14.92,4.22a23.71,23.71,0,0,0-7.24,10.88l-.68,2.27-1.15-2.07A33.66,33.66,0,0,0,58,180.56c-6.95-7.06-15.47-10.36-20.76-8.27a36.41,36.41,0,0,1,7.25,5.31,22.89,22.89,0,0,1,4.92,7.65l.46,1.28-1.36.05c-7.13.27-13.19,2.47-16.05,5.67A62.11,62.11,0,0,1,44.93,191a31.49,31.49,0,0,1,10.7,2.29l2,.86-1.94,1c-.72.35-1.31.67-1.85,1-5.46,3.19-9.27,7.86-9.86,11.8a62.56,62.56,0,0,1,8.85-6.45,13.27,13.27,0,0,1,6.64-1.69l2.54-.38-.2,1.34a106,106,0,0,0-1.21,15.6C60.59,233.29,63,253.73,63.53,258.16Z"/></svg>